<svg width="356" height="182" viewBox="0 0 356 182" fill="none" xmlns="http://www.w3.org/2000/svg">
<rect width="356" height="182" fill="#1E1E1E"/>
<path d="M144 28C141.606 33.8139 136.036 39.1519 132.111 43.8889C120.324 58.1149 107.358 71.1696 93.5555 83.4445C89.7904 86.7928 78.5553 96.8337 81.8889 93.0556C87.7137 86.4541 94.2276 80.8752 101.667 76.1111C113.941 68.2507 127.097 61.8676 141.5 59.2222C145.572 58.4744 152.946 56.3694 155.778 60.8889C160.281 68.0744 160.546 80.1555 161.333 88.1667C163.593 111.166 159.424 138.686 140.222 154.167C121.416 169.329 93.018 163.826 74.6667 150.889C52.7567 135.443 34.8107 106.763 41.8333 79.1667C45.6053 64.3442 51.1388 56.8132 63.8333 47.1667C94.0289 24.2212 134.701 13.877 171.222 7.11112C191.177 3.41438 222.695 -0.0365686 243.889 2.33334C259.114 4.03579 276.359 10.0192 278 27.3333C278.946 37.3137 275.758 45.986 271.556 54.8889C262.242 74.62 247.493 91.6709 230 104.667C196.17 129.799 152.34 141.249 111.944 150.667C107.369 151.733 68.3515 163.892 65.4444 153.556C62.847 144.32 69.0901 133.82 73 126" stroke="white" stroke-width="3" stroke-linecap="round"/>
<path d="M182 88C182 100.478 183.654 112.91 183.944 125.389C184.011 128.248 184 142.62 184 132" stroke="white" stroke-width="3" stroke-linecap="round"/>
<path d="M162 91C195.806 79.1382 232.006 73.423 267 66" stroke="white" stroke-width="3" stroke-linecap="round"/>
<path d="M213 105C221.694 91.9587 231.133 107.562 231 117C230.875 125.902 219.033 127.48 212.722 123.833C205.3 119.545 205.672 114.655 209 108" stroke="white" stroke-width="3" stroke-linecap="round"/>
<path d="M233 103C233 107.193 234.738 119.637 233.778 115.556C232.634 110.694 232.237 105.636 236.222 102C241.173 97.4833 242.618 100.12 244.944 105.5C245.901 107.711 247 114.619 247 108.833C247 100.428 252.62 97.1322 260.667 96.1667C266.617 95.4526 269 100.559 269 106" stroke="white" stroke-width="3" stroke-linecap="round"/>
<path d="M280 93C278.302 95.2069 273.899 109.99 278.667 105.222C282.252 101.637 285.18 97.3301 287.778 93C290.242 88.8926 291 86.0901 291 92.2222C291 99.762 290.962 101.899 294.444 93.5C294.918 92.3571 297.725 86.1111 294.722 86.1111C293.371 86.1111 286.66 88.3029 290 87.6667C303.306 85.1322 316.207 79.993 329.333 76.6667C332.762 75.7977 362.012 66.7819 351.444 79.4444C341.611 91.227 325.988 97.9454 314 107.167C308.85 111.128 297.046 119.179 297 127.222C296.959 134.386 309.675 133.574 313.278 133.389C316.867 133.205 347.721 126.397 326.556 130.222C232.388 147.24 136.758 152.763 42.3333 167.778C31.8099 169.451 21.2755 171.29 11 174.111C-11.2358 180.215 14.4309 179.742 17.4444 179.611C56.4363 177.916 95.8391 168.124 133.444 158.556C184.838 145.479 237.778 131.283 284 105" stroke="white" stroke-width="3" stroke-linecap="round"/>
</svg>
